<svg width="170" height="254" viewBox="0 0 170 254" fill="none" xmlns="http://www.w3.org/2000/svg">
<circle cx="85.282" cy="41.2126" r="41.2126" fill="#E8EDF5"/>
<path d="M0 40.8644H169.868V254H0V40.8644Z" fill="#E8EDF5"/>
<circle cx="85" cy="43" r="21" fill="white"/>
<circle cx="85" cy="43" r="13" fill="black"/>
<path d="M85 49.3C85.828 49.3 86.5 49.9048 86.5 50.65C86.5 51.3952 85.828 52 85 52C84.172 52 83.5 51.3952 83.5 50.65C83.5 49.9048 84.172 49.3 85 49.3ZM85 34C88.314 34 91 36.4174 91 39.4C91 41.3485 90.247 42.361 88.326 43.8307C86.399 45.304 86 45.9673 86 47.5H84C84 45.2734 84.787 44.1745 87.031 42.4591C88.548 41.299 89 40.6906 89 39.4C89 37.411 87.21 35.8 85 35.8C82.79 35.8 81 37.411 81 39.4V40.3H79V39.4C79 36.4174 81.686 34 85 34Z" fill="white"/>
</svg>
