<?xml version="1.0" standalone="no"?><!-- Generator: Gravit.io --><svg xmlns="http://www.w3.org/2000/svg" xmlns:xlink="http://www.w3.org/1999/xlink" style="isolation:isolate" viewBox="0 0 351.67 207.805" width="351.67" height="207.805"><g id="Group"><path d=" M 287.73 175.835 C 287.73 158.19 302.055 143.865 319.7 143.865 C 337.345 143.865 351.67 158.19 351.67 175.835 C 351.67 193.48 337.345 207.805 319.7 207.805 C 302.055 207.805 287.73 193.48 287.73 175.835 Z " fill="rgb(55,98,134)"/><path d=" M 215.798 175.835 C 215.798 158.19 230.123 143.865 247.768 143.865 C 265.412 143.865 279.738 158.19 279.738 175.835 C 279.738 193.48 265.412 207.805 247.768 207.805 C 230.123 207.805 215.798 193.48 215.798 175.835 Z " fill="rgb(55,98,134)"/><path d=" M 143.865 175.835 C 143.865 158.19 158.19 143.865 175.835 143.865 C 193.48 143.865 207.805 158.19 207.805 175.835 C 207.805 193.48 193.48 207.805 175.835 207.805 C 158.19 207.805 143.865 193.48 143.865 175.835 Z " fill="rgb(55,98,134)"/><path d=" M 71.933 175.835 C 71.933 158.19 86.258 143.865 103.903 143.865 C 121.547 143.865 135.873 158.19 135.873 175.835 C 135.873 193.48 121.547 207.805 103.903 207.805 C 86.258 207.805 71.933 193.48 71.933 175.835 Z " fill="rgb(55,98,134)"/><path d=" M 287.73 103.903 C 287.73 86.258 302.055 71.933 319.7 71.933 C 337.345 71.933 351.67 86.258 351.67 103.903 C 351.67 121.547 337.345 135.873 319.7 135.873 C 302.055 135.873 287.73 121.547 287.73 103.903 Z " fill="rgb(55,98,134)"/><path d=" M 143.865 103.903 C 143.865 86.258 158.19 71.933 175.835 71.933 C 193.48 71.933 207.805 86.258 207.805 103.903 C 207.805 121.547 193.48 135.873 175.835 135.873 C 158.19 135.873 143.865 121.547 143.865 103.903 Z " fill="rgb(55,98,134)"/><path d=" M 71.933 103.903 C 71.933 86.258 86.258 71.933 103.903 71.933 C 121.547 71.933 135.873 86.258 135.873 103.903 C 135.873 121.547 121.547 135.873 103.903 135.873 C 86.258 135.873 71.933 121.547 71.933 103.903 Z " fill="rgb(55,98,134)"/><path d=" M 0 103.903 C 0 86.258 14.325 71.933 31.97 71.933 C 49.615 71.933 63.94 86.258 63.94 103.903 C 63.94 121.547 49.615 135.873 31.97 135.873 C 14.325 135.873 0 121.547 0 103.903 Z " fill="rgb(55,98,134)"/><path d=" M 287.73 31.97 C 287.73 14.325 302.055 0 319.7 0 C 337.345 0 351.67 14.325 351.67 31.97 C 351.67 49.615 337.345 63.94 319.7 63.94 C 302.055 63.94 287.73 49.615 287.73 31.97 Z " fill="rgb(55,98,134)"/><path d=" M 215.798 31.97 C 215.798 14.325 230.123 0 247.768 0 C 265.412 0 279.738 14.325 279.738 31.97 C 279.738 49.615 265.412 63.94 247.768 63.94 C 230.123 63.94 215.798 49.615 215.798 31.97 Z " fill="rgb(55,98,134)"/><path d=" M 175.835 0 C 158.152 0 143.865 14.287 143.865 31.97 C 143.865 49.653 158.152 63.94 175.835 63.94 C 193.518 63.94 207.805 49.653 207.805 31.97 C 207.805 14.287 193.518 0 175.835 0 Z  M 175.835 55.948 C 162.547 55.948 151.858 45.258 151.858 31.97 C 151.858 18.682 162.547 7.993 175.835 7.993 C 189.123 7.993 199.813 18.682 199.813 31.97 C 199.813 45.258 189.123 55.948 175.835 55.948 Z " fill="rgb(55,98,134)"/><path d=" M 103.903 0 C 86.219 0 71.933 14.287 71.933 31.97 C 71.933 49.653 86.219 63.94 103.903 63.94 C 121.586 63.94 135.873 49.653 135.873 31.97 C 135.873 14.287 121.586 0 103.903 0 Z  M 103.903 55.948 C 90.615 55.948 79.925 45.258 79.925 31.97 C 79.925 18.682 90.615 7.993 103.903 7.993 C 117.19 7.993 127.88 18.682 127.88 31.97 C 127.88 45.258 117.19 55.948 103.903 55.948 Z " fill="rgb(55,98,134)"/><path d=" M 247.768 71.933 C 230.084 71.933 215.798 86.219 215.798 103.903 C 215.798 121.586 230.084 135.873 247.768 135.873 C 265.451 135.873 279.738 121.586 279.738 103.903 C 279.738 86.219 265.451 71.933 247.768 71.933 Z  M 247.768 127.88 C 234.48 127.88 223.79 117.19 223.79 103.903 C 223.79 90.615 234.48 79.925 247.768 79.925 C 261.055 79.925 271.745 90.615 271.745 103.903 C 271.745 117.19 261.055 127.88 247.768 127.88 Z " fill="rgb(55,98,134)"/><path d=" M 31.97 143.865 C 14.287 143.865 0 158.152 0 175.835 C 0 193.518 14.287 207.805 31.97 207.805 C 49.653 207.805 63.94 193.518 63.94 175.835 C 63.94 158.152 49.653 143.865 31.97 143.865 Z  M 31.97 199.813 C 18.682 199.813 7.993 189.123 7.993 175.835 C 7.993 162.547 18.682 151.858 31.97 151.858 C 45.258 151.858 55.948 162.547 55.948 175.835 C 55.948 189.123 45.258 199.813 31.97 199.813 Z " fill="rgb(55,98,134)"/><path d=" M 0 31.97 C 0 14.325 14.325 0 31.97 0 C 49.615 0 63.94 14.325 63.94 31.97 C 63.94 49.615 49.615 63.94 31.97 63.94 C 14.325 63.94 0 49.615 0 31.97 Z " fill="rgb(55,98,134)"/></g></svg>