<svg width="158" height="158" viewBox="0 0 158 158" fill="none" xmlns="http://www.w3.org/2000/svg">
<g filter="url(#filter0_d_906_858)">
<circle cx="79" cy="75" r="75" fill="white"/>
</g>
<path d="M109.091 92.2727C109.091 88.0307 112.879 84.5868 117.545 84.5868C122.212 84.5868 126 88.0307 126 92.2727C126 96.5148 122.212 99.9587 117.545 99.9587C112.879 99.9587 109.091 96.5148 109.091 92.2727Z" fill="#376286"/>
<path d="M90.0684 92.2727C90.0684 88.0307 93.8567 84.5868 98.5229 84.5868C103.189 84.5868 106.978 88.0307 106.978 92.2727C106.978 96.5148 103.189 99.9587 98.5229 99.9587C93.8567 99.9587 90.0684 96.5148 90.0684 92.2727Z" fill="#376286"/>
<path d="M71.0454 92.2727C71.0454 88.0307 74.8337 84.5868 79.5 84.5868C84.1663 84.5868 87.9546 88.0307 87.9546 92.2727C87.9546 96.5148 84.1663 99.9587 79.5 99.9587C74.8337 99.9587 71.0454 96.5148 71.0454 92.2727Z" fill="#376286"/>
<path d="M52.0225 92.2727C52.0225 88.0307 55.8108 84.5868 60.477 84.5868C65.143 84.5868 68.9316 88.0307 68.9316 92.2727C68.9316 96.5148 65.143 99.9587 60.477 99.9587C55.8108 99.9587 52.0225 96.5148 52.0225 92.2727Z" fill="#376286"/>
<path d="M109.091 74.9794C109.091 70.7374 112.879 67.2935 117.545 67.2935C122.212 67.2935 126 70.7374 126 74.9794C126 79.2212 122.212 82.6654 117.545 82.6654C112.879 82.6654 109.091 79.2212 109.091 74.9794Z" fill="#376286"/>
<path d="M71.0454 74.9794C71.0454 70.7374 74.8337 67.2935 79.5 67.2935C84.1663 67.2935 87.9546 70.7374 87.9546 74.9794C87.9546 79.2212 84.1663 82.6654 79.5 82.6654C74.8337 82.6654 71.0454 79.2212 71.0454 74.9794Z" fill="#376286"/>
<path d="M52.0225 74.9794C52.0225 70.7374 55.8108 67.2935 60.477 67.2935C65.143 67.2935 68.9316 70.7374 68.9316 74.9794C68.9316 79.2212 65.143 82.6654 60.477 82.6654C55.8108 82.6654 52.0225 79.2212 52.0225 74.9794Z" fill="#376286"/>
<path d="M33 74.9794C33 70.7374 36.7883 67.2935 41.4546 67.2935C46.1209 67.2935 49.9091 70.7374 49.9091 74.9794C49.9091 79.2212 46.1209 82.6654 41.4546 82.6654C36.7883 82.6654 33 79.2212 33 74.9794Z" fill="#376286"/>
<path d="M109.091 57.686C109.091 53.4439 112.879 50 117.545 50C122.212 50 126 53.4439 126 57.686C126 61.928 122.212 65.3719 117.545 65.3719C112.879 65.3719 109.091 61.928 109.091 57.686Z" fill="#376286"/>
<path d="M90.0684 57.686C90.0684 53.4439 93.8567 50 98.5229 50C103.189 50 106.978 53.4439 106.978 57.686C106.978 61.928 103.189 65.3719 98.5229 65.3719C93.8567 65.3719 90.0684 61.928 90.0684 57.686Z" fill="#376286"/>
<path d="M79.5 50C74.8237 50 71.0454 53.4348 71.0454 57.686C71.0454 61.9371 74.8237 65.3719 79.5 65.3719C84.1763 65.3719 87.9546 61.9371 87.9546 57.686C87.9546 53.4348 84.1763 50 79.5 50ZM79.5 63.4505C75.9859 63.4505 73.1592 60.8805 73.1592 57.686C73.1592 54.4914 75.9859 51.9216 79.5 51.9216C83.014 51.9216 85.841 54.4914 85.841 57.686C85.841 60.8805 83.014 63.4505 79.5 63.4505Z" fill="#376286"/>
<path d="M60.477 50C55.8004 50 52.0225 53.4348 52.0225 57.686C52.0225 61.9371 55.8004 65.3719 60.477 65.3719C65.1534 65.3719 68.9316 61.9371 68.9316 57.686C68.9316 53.4348 65.1534 50 60.477 50ZM60.477 63.4505C56.963 63.4505 54.136 60.8805 54.136 57.686C54.136 54.4914 56.963 51.9216 60.477 51.9216C63.9908 51.9216 66.8178 54.4914 66.8178 57.686C66.8178 60.8805 63.9908 63.4505 60.477 63.4505Z" fill="#376286"/>
<path d="M98.5229 67.2935C93.8463 67.2935 90.0684 70.728 90.0684 74.9794C90.0684 79.2306 93.8463 82.6654 98.5229 82.6654C103.199 82.6654 106.978 79.2306 106.978 74.9794C106.978 70.728 103.199 67.2935 98.5229 67.2935ZM98.5229 80.7438C95.0089 80.7438 92.1819 78.1738 92.1819 74.9794C92.1819 71.7848 95.0089 69.2148 98.5229 69.2148C102.037 69.2148 104.864 71.7848 104.864 74.9794C104.864 78.1738 102.037 80.7438 98.5229 80.7438Z" fill="#376286"/>
<path d="M41.4546 84.5868C36.7782 84.5868 33 88.0215 33 92.2727C33 96.5239 36.7782 99.9587 41.4546 99.9587C46.1309 99.9587 49.9091 96.5239 49.9091 92.2727C49.9091 88.0215 46.1309 84.5868 41.4546 84.5868ZM41.4546 98.0373C37.9405 98.0373 35.1138 95.4673 35.1138 92.2727C35.1138 89.0782 37.9405 86.5084 41.4546 86.5084C44.9686 86.5084 47.7956 89.0782 47.7956 92.2727C47.7956 95.4673 44.9686 98.0373 41.4546 98.0373Z" fill="#376286"/>
<path d="M33 57.686C33 53.4439 36.7883 50 41.4546 50C46.1209 50 49.9091 53.4439 49.9091 57.686C49.9091 61.928 46.1209 65.3719 41.4546 65.3719C36.7883 65.3719 33 61.928 33 57.686Z" fill="#376286"/>
<defs>
<filter id="filter0_d_906_858" x="0" y="0" width="158" height="158" filterUnits="userSpaceOnUse" color-interpolation-filters="sRGB">
<feFlood flood-opacity="0" result="BackgroundImageFix"/>
<feColorMatrix in="SourceAlpha" type="matrix" values="0 0 0 0 0 0 0 0 0 0 0 0 0 0 0 0 0 0 127 0" result="hardAlpha"/>
<feOffset dy="4"/>
<feGaussianBlur stdDeviation="2"/>
<feComposite in2="hardAlpha" operator="out"/>
<feColorMatrix type="matrix" values="0 0 0 0 0 0 0 0 0 0 0 0 0 0 0 0 0 0 0.25 0"/>
<feBlend mode="normal" in2="BackgroundImageFix" result="effect1_dropShadow_906_858"/>
<feBlend mode="normal" in="SourceGraphic" in2="effect1_dropShadow_906_858" result="shape"/>
</filter>
</defs>
</svg>
