<svg width="93" height="50" viewBox="0 0 93 50" fill="none" xmlns="http://www.w3.org/2000/svg">
<path d="M76.0908 42.2727C76.0908 38.0307 79.8791 34.5868 84.5454 34.5868C89.2117 34.5868 93 38.0307 93 42.2727C93 46.5148 89.2117 49.9587 84.5454 49.9587C79.8791 49.9587 76.0908 46.5148 76.0908 42.2727Z" fill="#376286"/>
<path d="M57.0684 42.2727C57.0684 38.0307 60.8567 34.5868 65.5229 34.5868C70.1889 34.5868 73.9775 38.0307 73.9775 42.2727C73.9775 46.5148 70.1889 49.9587 65.5229 49.9587C60.8567 49.9587 57.0684 46.5148 57.0684 42.2727Z" fill="#376286"/>
<path d="M38.0454 42.2727C38.0454 38.0307 41.8337 34.5868 46.5 34.5868C51.1663 34.5868 54.9546 38.0307 54.9546 42.2727C54.9546 46.5148 51.1663 49.9587 46.5 49.9587C41.8337 49.9587 38.0454 46.5148 38.0454 42.2727Z" fill="#376286"/>
<path d="M19.0225 42.2727C19.0225 38.0307 22.8108 34.5868 27.477 34.5868C32.143 34.5868 35.9316 38.0307 35.9316 42.2727C35.9316 46.5148 32.143 49.9587 27.477 49.9587C22.8108 49.9587 19.0225 46.5148 19.0225 42.2727Z" fill="#376286"/>
<path d="M76.0908 24.9794C76.0908 20.7374 79.8791 17.2935 84.5454 17.2935C89.2117 17.2935 93 20.7374 93 24.9794C93 29.2212 89.2117 32.6654 84.5454 32.6654C79.8791 32.6654 76.0908 29.2212 76.0908 24.9794Z" fill="#376286"/>
<path d="M38.0454 24.9794C38.0454 20.7374 41.8337 17.2935 46.5 17.2935C51.1663 17.2935 54.9546 20.7374 54.9546 24.9794C54.9546 29.2212 51.1663 32.6654 46.5 32.6654C41.8337 32.6654 38.0454 29.2212 38.0454 24.9794Z" fill="#376286"/>
<path d="M19.0225 24.9794C19.0225 20.7374 22.8108 17.2935 27.477 17.2935C32.143 17.2935 35.9316 20.7374 35.9316 24.9794C35.9316 29.2212 32.143 32.6654 27.477 32.6654C22.8108 32.6654 19.0225 29.2212 19.0225 24.9794Z" fill="#376286"/>
<path d="M0 24.9794C0 20.7374 3.78829 17.2935 8.45457 17.2935C13.1209 17.2935 16.9091 20.7374 16.9091 24.9794C16.9091 29.2212 13.1209 32.6654 8.45457 32.6654C3.78829 32.6654 0 29.2212 0 24.9794Z" fill="#376286"/>
<path d="M76.0908 7.68595C76.0908 3.44389 79.8791 0 84.5454 0C89.2117 0 93 3.44389 93 7.68595C93 11.928 89.2117 15.3719 84.5454 15.3719C79.8791 15.3719 76.0908 11.928 76.0908 7.68595Z" fill="#376286"/>
<path d="M57.0684 7.68595C57.0684 3.44389 60.8567 0 65.5229 0C70.1889 0 73.9775 3.44389 73.9775 7.68595C73.9775 11.928 70.1889 15.3719 65.5229 15.3719C60.8567 15.3719 57.0684 11.928 57.0684 7.68595Z" fill="#376286"/>
<path d="M46.5 0C41.8237 0 38.0454 3.43476 38.0454 7.68595C38.0454 11.9371 41.8237 15.3719 46.5 15.3719C51.1763 15.3719 54.9546 11.9371 54.9546 7.68595C54.9546 3.43476 51.1763 0 46.5 0ZM46.5 13.4505C42.9859 13.4505 40.1592 10.8805 40.1592 7.68595C40.1592 4.49136 42.9859 1.92161 46.5 1.92161C50.014 1.92161 52.841 4.49136 52.841 7.68595C52.841 10.8805 50.014 13.4505 46.5 13.4505Z" fill="#376286"/>
<path d="M27.477 0C22.8004 0 19.0225 3.43476 19.0225 7.68595C19.0225 11.9371 22.8004 15.3719 27.477 15.3719C32.1534 15.3719 35.9316 11.9371 35.9316 7.68595C35.9316 3.43476 32.1534 0 27.477 0ZM27.477 13.4505C23.963 13.4505 21.136 10.8805 21.136 7.68595C21.136 4.49136 23.963 1.92161 27.477 1.92161C30.9908 1.92161 33.8178 4.49136 33.8178 7.68595C33.8178 10.8805 30.9908 13.4505 27.477 13.4505Z" fill="#376286"/>
<path d="M65.5229 17.2935C60.8463 17.2935 57.0684 20.728 57.0684 24.9794C57.0684 29.2306 60.8463 32.6654 65.5229 32.6654C70.1993 32.6654 73.9775 29.2306 73.9775 24.9794C73.9775 20.728 70.1993 17.2935 65.5229 17.2935ZM65.5229 30.7438C62.0089 30.7438 59.1819 28.1738 59.1819 24.9794C59.1819 21.7848 62.0089 19.2148 65.5229 19.2148C69.0367 19.2148 71.8637 21.7848 71.8637 24.9794C71.8637 28.1738 69.0367 30.7438 65.5229 30.7438Z" fill="#376286"/>
<path d="M8.45457 34.5868C3.77824 34.5868 0 38.0215 0 42.2727C0 46.5239 3.77824 49.9587 8.45457 49.9587C13.1309 49.9587 16.9091 46.5239 16.9091 42.2727C16.9091 38.0215 13.1309 34.5868 8.45457 34.5868ZM8.45457 48.0373C4.94052 48.0373 2.11378 45.4673 2.11378 42.2727C2.11378 39.0782 4.94052 36.5084 8.45457 36.5084C11.9686 36.5084 14.7956 39.0782 14.7956 42.2727C14.7956 45.4673 11.9686 48.0373 8.45457 48.0373Z" fill="#376286"/>
<path d="M0 7.68595C0 3.44389 3.78829 0 8.45457 0C13.1209 0 16.9091 3.44389 16.9091 7.68595C16.9091 11.928 13.1209 15.3719 8.45457 15.3719C3.78829 15.3719 0 11.928 0 7.68595Z" fill="#376286"/>
</svg>
