<svg width="40" height="40" viewBox="0 0 40 40" fill="none" xmlns="http://www.w3.org/2000/svg">
<rect width="40" height="40" rx="5" fill="black"/>
<path d="M15.864 26L13.4 21.648H12.344V26H10.104V14.832H14.296C15.16 14.832 15.896 14.9867 16.504 15.296C17.112 15.5947 17.5653 16.0053 17.864 16.528C18.1733 17.04 18.328 17.616 18.328 18.256C18.328 18.992 18.1147 19.6587 17.688 20.256C17.2613 20.8427 16.6267 21.248 15.784 21.472L18.456 26H15.864ZM12.344 19.968H14.216C14.824 19.968 15.2773 19.824 15.576 19.536C15.8747 19.2373 16.024 18.8267 16.024 18.304C16.024 17.792 15.8747 17.3973 15.576 17.12C15.2773 16.832 14.824 16.688 14.216 16.688H12.344V19.968ZM30.386 14.832L26.29 26H23.57L19.474 14.832H21.874L24.946 23.712L28.002 14.832H30.386Z" fill="white"/>
</svg>
